<svg width="95" height="63" viewBox="0 0 95 63" fill="none" xmlns="http://www.w3.org/2000/svg">
<path d="M47.2115 37.7799H47.2315C47.9334 37.7826 48.6209 37.5812 49.2104 37.2002L49.3645 37.1013L49.47 37.0359L51.2646 35.5498L94.0962 0.206092C94.0501 0.142964 93.9898 0.0914605 93.9203 0.055684C93.8508 0.0199076 93.7739 0.000842734 93.6957 0H0.489242C0.377375 0.000594979 0.269143 0.0396301 0.182648 0.110576L44.9947 37.0477C45.6288 37.5369 46.4108 37.7952 47.2115 37.7799ZM0 5.00816V57.3987L32.1015 31.4682L0 5.00816ZM62.1354 31.6491L94.2034 57.4188V5.1757L62.1354 31.6491ZM51.9398 40.062C50.5969 41.1147 48.9402 41.6875 47.2339 41.689C45.5275 41.6906 43.8698 41.1207 42.525 40.0703L35.1728 34.0066L0 62.4085V62.4973C0 62.6306 0.0528943 62.7585 0.147161 62.8528C0.241428 62.9471 0.369326 63 0.502639 63H93.7041C93.8374 63 93.9653 62.9471 94.0596 62.8528C94.1539 62.7585 94.2068 62.6306 94.2068 62.4973V62.4152L59.0641 34.1792L51.9398 40.062Z" fill="#1BFF80"/>
</svg>
