<svg width="64" height="64" viewBox="0 0 64 64" fill="none" xmlns="http://www.w3.org/2000/svg">
<path d="M64 0V64H43.184C41.4703 64 40.9327 63.038 40.9327 62.1609C40.9327 61.0858 40.9731 57.5491 40.9731 53.1636C41.0557 52.0511 40.8993 50.9337 40.5145 49.8866C40.1297 48.8395 39.5253 47.8869 38.7419 47.0926C46.0498 46.2761 53.7214 43.5074 53.7214 30.9046C53.771 27.6472 52.5637 24.4958 50.3504 22.1053C51.3506 19.2766 51.2335 16.1727 50.023 13.4273C50.023 13.4273 47.2745 12.5462 41.0095 16.7902C35.6345 15.3167 29.9621 15.3167 24.5871 16.7902C18.3221 12.5462 15.5736 13.4273 15.5736 13.4273C14.366 16.1736 14.2504 19.2768 15.2502 22.1053C13.0383 24.497 11.83 27.6472 11.8752 30.9046C11.8752 43.4751 19.5306 46.2882 26.8142 47.1168C25.6203 48.283 24.8809 49.8363 24.7286 51.4983C23.9244 51.9515 23.0383 52.2407 22.1216 52.349C21.2048 52.4572 20.2757 52.3825 19.3881 52.1291C18.5005 51.8757 17.672 51.4487 16.9506 50.8728C16.2292 50.2969 15.6292 49.5835 15.1855 48.774C14.6604 47.8657 13.9348 47.0891 13.0642 46.5036C12.1936 45.918 11.2008 45.5388 10.1614 45.395C10.1614 45.395 6.95617 45.3545 9.93508 47.3917C11.6819 48.505 12.9723 50.207 13.5728 52.1895C13.5728 52.1895 15.5049 58.5676 24.6275 56.5871C24.6437 59.3194 24.6679 61.3808 24.6679 62.165C24.6679 63.0299 24.0738 64 22.4327 64H0V0H64Z" fill="#1BFF80"/>
</svg>
