<svg width="64" height="64" viewBox="0 0 64 64" fill="none" xmlns="http://www.w3.org/2000/svg">
<g clip-path="url(#clip0_22_22)">
<path d="M50.6667 0H13.3333C5.97067 0 0 5.97067 0 13.3333V50.6667C0 58.0293 5.97067 64 13.3333 64H50.6667C58.032 64 64 58.0293 64 50.6667V13.3333C64 5.97067 58.032 0 50.6667 0ZM21.3333 50.6667H13.3333V21.3333H21.3333V50.6667ZM17.3333 17.952C14.7573 17.952 12.6667 15.8453 12.6667 13.248C12.6667 10.6507 14.7573 8.544 17.3333 8.544C19.9093 8.544 22 10.6507 22 13.248C22 15.8453 19.912 17.952 17.3333 17.952ZM53.3333 50.6667H45.3333V35.7227C45.3333 26.7413 34.6667 27.4213 34.6667 35.7227V50.6667H26.6667V21.3333H34.6667V26.04C38.3893 19.144 53.3333 18.6347 53.3333 32.6427V50.6667Z" fill="#1BFF80"/>
<rect width="13" height="11" fill="#1BFF80"/>
<rect x="51" width="13" height="11" fill="#1BFF80"/>
<rect x="51" y="53" width="13" height="11" fill="#1BFF80"/>
<rect y="53" width="13" height="11" fill="#1BFF80"/>
</g>
<defs>
<clipPath id="clip0_22_22">
<rect width="64" height="64" fill="white"/>
</clipPath>
</defs>
</svg>
