<svg width="64" height="64" viewBox="0 0 64 64" fill="none" xmlns="http://www.w3.org/2000/svg">
<path d="M39.8887 58.8212C34.2796 60.7091 28.2162 60.7689 22.571 58.9921C16.9257 57.2153 11.9896 53.6935 8.47293 48.9333C4.95624 44.1732 3.04024 38.4201 3.00063 32.502C2.96101 26.5839 4.79981 20.8057 8.25247 15.9989C11.7051 11.1921 16.5936 7.6045 22.2146 5.75227C27.8356 3.90004 33.8992 3.87868 39.5331 5.69127C45.167 7.50386 50.0806 11.0569 53.567 15.8393C57.0535 20.6217 58.9329 26.3867 58.935 32.305C58.8446 34.5735 58.5699 36.831 58.1137 39.055" stroke="#05321E" stroke-width="3.375"/>
<path d="M37.56 53.6237C35.548 55.9097 33.3423 58.0175 30.9675 59.9238" stroke="#05321E" stroke-width="3.375"/>
<path d="M30.9675 4.01125C38.5168 10.607 43.1881 19.8931 43.9837 29.8862C44.1471 31.7003 44.1809 33.5237 44.085 35.3425" stroke="#05321E" stroke-width="3.375"/>
<path d="M30.9675 4.01125C26.8715 7.58141 23.5809 11.9812 21.3136 16.9191C19.0464 21.857 17.8542 27.2203 17.8163 32.6537C17.8163 50.8787 26.0063 56.2788 30.9338 59.9238" stroke="#05321E" stroke-width="3.375"/>
<path d="M6.63375 18.5237H55.4362" stroke="#05321E" stroke-width="3.375"/>
<path d="M30.9675 4V59.9237" stroke="#05321E" stroke-width="3.375"/>
<path d="M7.39875 47.3012H36.6375" stroke="#05321E" stroke-width="3.375"/>
<path d="M3 32.6538L58.935 31.9675" stroke="#05321E" stroke-width="3.375"/>
<path d="M55.2337 60.2613L60.2175 55.2663L51.2175 46.2663L56.3362 42.9925C56.4108 42.9484 56.4703 42.8827 56.5067 42.8041C56.5431 42.7255 56.5547 42.6376 56.5401 42.5522C56.5255 42.4668 56.4852 42.3879 56.4247 42.3259C56.3642 42.2639 56.2863 42.2217 56.2012 42.205L39 38.1775C38.929 38.163 38.8554 38.1664 38.786 38.1873C38.7166 38.2082 38.6534 38.2459 38.6022 38.2972C38.5509 38.3484 38.5131 38.4116 38.4923 38.481C38.4714 38.5505 38.468 38.624 38.4825 38.695L42.2175 56.2225C42.2354 56.3077 42.2783 56.3856 42.3407 56.4464C42.4031 56.5071 42.4821 56.5479 42.5678 56.5636C42.6534 56.5793 42.7418 56.5692 42.8217 56.5345C42.9015 56.4997 42.9693 56.4421 43.0162 56.3688L46.2337 51.2613L55.2337 60.2613Z" stroke="#05321E" stroke-width="3.375"/>
</svg>
