<svg width="65" height="73" viewBox="0 0 65 73" fill="none" xmlns="http://www.w3.org/2000/svg">
<path d="M18.4329 2.55054C18.4329 2.55054 17.344 0 15.681 0C14.0445 0 13.1932 0.755595 12.6257 1.27692C12.0581 1.79825 2.56207 9.60166 2.56207 9.60166C2.56207 9.60166 -0.19965 12.0136 0.011521 16.5505C0.189696 21.0874 1.07727 27.5446 5.68343 36.5391C10.2566 45.5139 21.7027 59.2267 28.9353 64.0474C28.9353 64.0474 35.6366 69.188 41.8728 71.2767C43.6842 71.8475 47.3071 72.5899 48.1518 72.5899C49.0097 72.5899 50.5242 72.5899 52.263 71.3196C54.0316 70.036 63.9533 62.0577 63.9533 62.0577C63.9533 62.0577 66.3818 59.8636 63.5606 57.313C60.7263 54.7625 52.1211 49.0906 50.28 47.5992C48.4356 46.0847 45.8091 46.7512 44.6741 47.7773C43.5423 48.8101 41.5197 50.5094 41.2723 50.7238C40.9027 51.0076 39.8898 51.9282 38.7547 51.4695C37.3095 50.8987 31.3835 47.6817 25.8898 40.1653C20.4291 32.6555 19.8286 30.2007 19.0136 27.5479C18.8753 27.1557 18.8734 26.7284 19.0082 26.335C19.1429 25.9416 19.4064 25.6052 19.756 25.3801C20.5743 24.8125 23.5867 22.3016 23.5867 22.3016C23.5867 22.3016 25.5368 20.378 24.7218 18.1112C23.9068 15.8444 18.4329 2.55054 18.4329 2.55054Z" fill="#1BFF80"/>
</svg>
